Coordinates
version=1
nRows=8
nColumns=42
inDegrees=yes

Units are S.I. units (second, meters, Newtons, ...)
If the header above contains a line with 'inDegrees', this indicates whether rotational values are in degrees (yes) or radians (no).

endheader
time	pelvis_tilt	pelvis_list	pelvis_rotation	pelvis_tx	pelvis_ty	pelvis_tz	hip_flexion_r	hip_adduction_r	hip_rotation_r	knee_angle_r	knee_adduction_r	knee_angle_r_beta	ankle_angle_r	subtalar_angle_r	mtp_angle_r	hip_flexion_l	hip_adduction_l	hip_rotation_l	knee_angle_l	knee_adduction_l	knee_angle_l_beta	ankle_angle_l	subtalar_angle_l	mtp_angle_l	lumbar_extension	lumbar_bending	lumbar_rotation	arm_flex_r	arm_add_r	arm_rot_r	elbow_flex_r	pro_sup_r	wrist_flex_r	wrist_dev_r	arm_flex_l	arm_add_l	arm_rot_l	elbow_flex_l	pro_sup_l	wrist_flex_l	wrist_dev_l
      3.24000000	     11.79114988	      0.80655527	      1.52477922	      1.16892448	      0.90414898	     -0.20627645	    -16.76882662	     -4.56193657	    -36.80614535	     48.18206124	    -15.95530696	      0.84093561	      8.22059882	     33.40116722	     -7.50004065	     14.59604390	      4.74409869	    -14.26150047	     38.27693124	    -10.86767813	      0.66805848	     14.41984267	      6.06630455	     -7.50004065	    -33.21257742	     -3.18713299	      0.12082485	     16.50480615	    -21.16899733	      0.44601144	     54.24244414	     90.00000001	      0.00000000	      0.00000000	      0.90571718	     -9.44031340	    -13.80228029	     31.27028212	     90.00000001	      0.00000000	      0.00000000
      3.25000000	     11.57776701	      0.97974249	      1.74685097	      1.17737475	      0.90536914	     -0.20790529	    -15.39226779	     -4.55741007	    -34.27440844	     51.07930922	    -15.45424235	      0.89150213	      7.03660025	     27.09733132	     -7.50003793	     14.08378107	      5.15766559	    -15.02457970	     37.75376078	    -11.55105878	      0.65892743	     15.09313710	      7.82130258	     -7.50003793	    -33.17727413	     -3.27040259	     -0.26890693	     16.20249279	    -20.44419607	      0.75060384	     51.67070009	     90.00000001	      0.00000000	      0.00000000	      2.05727211	     -9.80905080	    -13.91185246	     30.80455913	     90.00000001	      0.00000000	      0.00000000
      3.26000000	     11.48085798	      1.09543392	      1.87960098	      1.18557189	      0.90684528	     -0.20944283	    -14.08987425	     -4.40013570	    -30.47970743	     54.16932398	    -14.00368127	      0.94543306	      6.92918790	     21.11537013	     -7.50003435	     13.35479584	      5.50799291	    -15.22059729	     37.19268914	    -11.82120020	      0.64913488	     15.69831986	      8.50635897	     -7.50003435	    -33.33397841	     -3.28533857	     -0.48061395	     15.46412913	    -19.96147766	      0.88848628	     50.54964264	     90.00000001	      0.00000000	      0.00000000	      3.21281784	    -10.05702436	    -14.31159927	     30.82986794	     90.00000001	      0.00000000	      0.00000000
      3.27000000	     11.35970373	      1.21030682	      2.01084331	      1.19360855	      0.90830741	     -0.21091768	    -12.64860968	     -4.28589987	    -27.00097508	     57.19503615	    -12.53977403	      0.99824170	      6.80840862	     15.91723915	     -7.50003178	     12.62806499	      5.88502132	    -15.01767672	     36.63705652	    -11.90472962	      0.63943726	     16.05124090	      8.55779077	     -7.50003178	    -33.45237241	     -3.29417385	     -0.72356648	     14.95251040	    -19.40381494	      1.09379753	     48.81543048	     90.00000001	      0.00000000	      0.00000000	      4.41498937	    -10.37474362	    -14.44234601	     30.74177766	     90.00000001	      0.00000000	      0.00000000
      3.28000000	     11.22840462	      1.31641740	      2.12781839	      1.20148916	      0.90974306	     -0.21233402	    -11.12525638	     -4.17744554	    -23.44423293	     60.15089099	    -10.77263036	      1.04983110	      6.90044466	     11.16140603	     -7.50002952	     11.91153569	      6.25838953	    -14.58540768	     36.10720597	    -11.85943501	      0.63018963	     16.33943602	      8.29037144	     -7.50002952	    -33.56394777	     -3.30468972	     -0.93870013	     14.25092089	    -18.86591790	      1.20855332	     47.44984098	     90.00000001	      0.00000000	      0.00000000	      5.60442173	    -10.67931523	    -14.59092531	     30.84044679	     90.00000001	      0.00000000	      0.00000000
      3.29000000	     11.08555792	      1.41400679	      2.23544554	      1.20926906	      0.91111161	     -0.21363668	     -9.49891615	     -4.10724574	    -20.37708248	     62.89961900	     -9.17242702	      1.09780545	      7.02090516	      7.19261690	     -7.50002745	     11.20438788	      6.60262206	    -14.05990043	     35.58644237	    -11.74541673	      0.62110059	     16.58658049	      7.85790572	     -7.50002745	    -33.65735102	     -3.30120961	     -1.19441101	     13.60656390	    -18.27248663	      1.28646167	     46.10776585	     90.00000001	      0.00000000	      0.00000000	      6.77642759	    -11.03522923	    -14.75818295	     30.94872540	     90.00000001	      0.00000000	      0.00000000
      3.30000000	     10.92870769	      1.50992731	      2.34190323	      1.21696232	      0.91238935	     -0.21482751	     -7.78500220	     -4.06310904	    -17.79724021	     65.43365297	     -7.79022990	      1.14203269	      7.41589624	      4.00117552	     -7.50002555	     10.52281689	      6.93618086	    -13.51214640	     35.06695353	    -11.64498568	      0.61203380	     16.79528416	      7.41644384	     -7.50002555	    -33.72702064	     -3.30222737	     -1.44280066	     12.91347336	    -17.66542591	      1.30564546	     44.80537538	     90.00000001	      0.00000000	      0.00000000	      7.96492457	    -11.44480894	    -14.92892265	     31.12383463	     90.00000001	      0.00000000	      0.00000000
      3.31000000	     10.76149262	      1.57572507	      2.43331805	      1.22452807	      0.91356606	     -0.21596403	     -5.99693911	     -4.00359696	    -15.59037875	     67.71081569	     -6.61893214	      1.18177667	      8.15866545	      1.44658135	     -7.50002385	      9.87970273	      7.21307540	    -13.04321473	     34.56565811	    -11.56295316	      0.60328454	     16.98448363	      7.07037084	     -7.50002385	    -33.76569325	     -3.26793277	     -1.63635635	     12.19275295	    -17.06730013	      1.27600776	     43.42020798	     90.00000001	      0.00000000	      0.00000000	      9.17050532	    -11.75120967	    -15.04217854	     31.34560407	     90.00000001	      0.00000000	      0.00000000
